<svg xmlns="http://www.w3.org/2000/svg" viewBox="0 0 100 100" width="100" height="100">
  <defs>
    <linearGradient id="heartGradient" x1="0%" y1="0%" x2="100%" y2="100%">
      <stop offset="0%" style="stop-color:#FF6B6B;stop-opacity:1" />
      <stop offset="30%" style="stop-color:#FF4757;stop-opacity:1" />
      <stop offset="70%" style="stop-color:#DC143C;stop-opacity:1" />
      <stop offset="100%" style="stop-color:#B22222;stop-opacity:1" />
    </linearGradient>
    <radialGradient id="heartHighlight" cx="30%" cy="25%" r="40%">
      <stop offset="0%" style="stop-color:#FFFFFF;stop-opacity:0.4" />
      <stop offset="50%" style="stop-color:#FFFFFF;stop-opacity:0.1" />
      <stop offset="100%" style="stop-color:#FFFFFF;stop-opacity:0" />
    </radialGradient>
    <filter id="heartShadow" x="-50%" y="-50%" width="200%" height="200%">
      <feDropShadow dx="2" dy="3" stdDeviation="2" flood-opacity="0.3"/>
    </filter>
  </defs>
  
  <!-- Heart shape -->
  <path d="M50,85 C50,85 20,60 20,40 C20,30 28,22 38,22 C43,22 47,24 50,28 C53,24 57,22 62,22 C72,22 80,30 80,40 C80,60 50,85 50,85 Z" 
        fill="url(#heartGradient)" 
        filter="url(#heartShadow)"/>
  
  <!-- Heart highlight for 3D effect -->
  <path d="M50,85 C50,85 20,60 20,40 C20,30 28,22 38,22 C43,22 47,24 50,28 C53,24 57,22 62,22 C72,22 80,30 80,40 C80,60 50,85 50,85 Z" 
        fill="url(#heartHighlight)"/>
  
  <!-- Small sparkle -->
  <circle cx="38" cy="35" r="1.5" fill="#FFFFFF" opacity="0.8"/>
  <circle cx="62" cy="32" r="1" fill="#FFFFFF" opacity="0.6"/>
</svg>